<svg width="256" height="256" viewBox="0 0 256 256" fill="none" xmlns="http://www.w3.org/2000/svg">
<g clip-path="url(#clip0_33_46)">
<path d="M196 0H60C26.8629 0 0 26.8629 0 60V196C0 229.137 26.8629 256 60 256H196C229.137 256 256 229.137 256 196V60C256 26.8629 229.137 0 196 0Z" fill="url(#paint0_linear_33_46)"/>
<path d="M37.7853 122.296C87.7236 100.565 121.015 86.2369 137.661 79.3149C185.245 59.549 195.12 56.1161 201.569 56.0011C202.988 55.9771 206.145 56.3273 208.206 57.993C209.919 59.3966 210.401 61.2949 210.642 62.6263C210.856 63.9578 211.151 66.9923 210.91 69.3611C208.341 96.418 197.181 162.076 191.507 192.382C189.125 205.205 184.388 209.504 179.812 209.924C169.856 210.838 162.309 203.357 152.675 197.05C137.608 187.176 129.098 181.032 114.459 171.399C97.5451 160.266 108.517 154.146 118.152 144.147C120.667 141.53 164.503 101.706 165.333 98.0943C165.44 97.6425 165.548 95.9581 164.531 95.0705C163.541 94.1802 162.068 94.485 160.997 94.7256C159.472 95.0678 135.413 110.97 88.7394 142.431C81.915 147.12 75.7331 149.406 70.1665 149.286C64.0648 149.155 52.2902 145.832 43.5389 142.992C32.834 139.508 24.2965 137.666 25.0458 131.75C25.4205 128.67 29.6764 125.517 37.7853 122.296Z" fill="white"/>
</g>
<defs>
<linearGradient id="paint0_linear_33_46" x1="128" y1="0" x2="128" y2="256" gradientUnits="userSpaceOnUse">
<stop stop-color="#6BBDF7"/>
<stop offset="1" stop-color="#408ECC"/>
</linearGradient>
<clipPath id="clip0_33_46">
<rect width="256" height="256" fill="white"/>
</clipPath>
</defs>
</svg>
