<svg width="48" height="48" viewBox="0 0 48 48" fill="none" xmlns="http://www.w3.org/2000/svg">
<g clip-path="url(#clip0_33_46)">
<path d="M36.75 0H11.25C5.0368 0 0 5.0368 0 11.25V36.75C0 42.9632 5.0368 48 11.25 48H36.75C42.9632 48 48 42.9632 48 36.75V11.25C48 5.0368 42.9632 0 36.75 0Z" fill="url(#paint0_linear_33_46)"/>
<path d="M7.08475 22.9305C16.4482 18.8559 22.6904 16.1694 25.8115 14.8716C34.7334 11.1654 36.5849 10.5218 37.7942 10.5002C38.0602 10.4957 38.6523 10.5614 39.0387 10.8737C39.3598 11.1369 39.4502 11.4928 39.4954 11.7424C39.5355 11.9921 39.5908 12.5611 39.5456 13.0052C39.0639 18.0784 36.9714 30.3893 35.9076 36.0716C35.461 38.4759 34.5728 39.282 33.7147 39.3607C31.8481 39.5321 30.4329 38.1295 28.6265 36.9468C25.8014 35.0955 24.2058 33.9435 21.461 32.1374C18.2897 30.0499 20.347 28.9025 22.1534 27.0276C22.6251 26.5368 30.8444 19.0699 31 18.3927C31.02 18.308 31.0402 17.9922 30.8495 17.8257C30.6639 17.6588 30.3877 17.7159 30.187 17.761C29.901 17.8252 25.3899 20.807 16.6386 26.7058C15.3591 27.585 14.2 28.0137 13.1562 27.9911C12.0121 27.9665 9.80441 27.3434 8.16355 26.811C6.15638 26.1578 4.55559 25.8124 4.69609 24.7031C4.76634 24.1256 5.56432 23.5345 7.08475 22.9305Z" fill="white"/>
</g>
<defs>
<linearGradient id="paint0_linear_33_46" x1="24" y1="0" x2="24" y2="48" gradientUnits="userSpaceOnUse">
<stop stop-color="#6BBDF7"/>
<stop offset="1" stop-color="#408ECC"/>
</linearGradient>
<clipPath id="clip0_33_46">
<rect width="48" height="48" fill="white"/>
</clipPath>
</defs>
</svg>
