<svg width="48" height="48" viewBox="0 0 48 48" fill="none" xmlns="http://www.w3.org/2000/svg">
<g clip-path="url(#clip0_1_3)">
<path d="M36.75 0H11.25C5.0368 0 0 5.0368 0 11.25V36.75C0 42.9632 5.0368 48 11.25 48H36.75C42.9632 48 48 42.9632 48 36.75V11.25C48 5.0368 42.9632 0 36.75 0Z" fill="white"/>
<path d="M24 4C18.6969 4 13.6062 6.10844 9.85938 9.85781C6.10938 13.6072 4 18.6978 4 24C4 29.3022 6.10938 34.3928 9.85938 38.1422C13.6062 41.8916 18.6969 44 24 44C29.3031 44 34.3938 41.8916 38.1406 38.1422C41.8906 34.3928 44 29.3022 44 24C44 18.6978 41.8906 13.6072 38.1406 9.85781C34.3938 6.10844 29.3031 4 24 4Z" fill="url(#paint0_linear_1_3)"/>
<path d="M13.0532 23.7887C18.8845 21.2487 22.7719 19.574 24.7157 18.765C30.2719 16.4546 31.425 16.0534 32.1781 16.04C32.3438 16.0371 32.7125 16.0781 32.9531 16.2728C33.1531 16.4368 33.2094 16.6587 33.2376 16.8143C33.2626 16.97 33.297 17.3246 33.2688 17.6015C32.9688 20.764 31.6657 28.4384 31.0032 31.9806C30.7251 33.4794 30.1719 33.9819 29.6376 34.031C28.4751 34.1378 27.5938 33.2635 26.4688 32.5262C24.7094 31.3721 23.7157 30.654 22.0063 29.5281C20.0313 28.2268 21.3125 27.5115 22.4375 26.3428C22.7313 26.0368 27.85 21.3821 27.9469 20.96C27.9594 20.9071 27.9719 20.7103 27.8532 20.6065C27.7376 20.5025 27.5656 20.5381 27.4406 20.5662C27.2625 20.6062 24.4531 22.465 19.0031 26.1421C18.2062 26.6903 17.4844 26.9575 16.8344 26.9434C16.1219 26.9281 14.747 26.5396 13.7251 26.2078C12.4751 25.8006 11.4782 25.5853 11.5657 24.8937C11.6094 24.5337 12.1064 24.1653 13.0532 23.7887Z" fill="white"/>
</g>
<defs>
<linearGradient id="paint0_linear_1_3" x1="24" y1="4" x2="24" y2="44" gradientUnits="userSpaceOnUse">
<stop stop-color="#2AABEE"/>
<stop offset="1" stop-color="#229ED9"/>
</linearGradient>
<clipPath id="clip0_1_3">
<rect width="48" height="48" fill="white"/>
</clipPath>
</defs>
</svg>
